<svg width="22" height="18" viewBox="0 0 22 18" fill="none" xmlns="http://www.w3.org/2000/svg">
<path fill-rule="evenodd" clip-rule="evenodd" d="M11.9172 0.525382C11.5095 -0.180662 10.4905 -0.180661 10.0828 0.525383L0.911046 16.4114C0.503411 17.1174 1.01295 18 1.82822 18H20.1718C20.9871 18 21.4966 17.1174 21.089 16.4114L11.9172 0.525382ZM18.5 16L11 2.50001L3.5 16H18.5ZM12 14C12 14.5523 11.5523 15 11 15C10.4477 15 10 14.5523 10 14C10 13.4477 10.4477 13 11 13C11.5523 13 12 13.4477 12 14ZM11 12C11.5523 12 12 11.5523 12 11V7C12 6.44772 11.5523 6 11 6C10.4477 6 10 6.44772 10 7V11C10 11.5523 10.4477 12 11 12Z" fill="#FF002E"/>
</svg>
