<svg width="54" height="24" viewBox="0 0 54 24" fill="none" xmlns="http://www.w3.org/2000/svg">
<path fill-rule="evenodd" clip-rule="evenodd" d="M26.578 0L28.4436 1.90169L28.4406 6.93329L26.578 8.83805L24.7153 6.93329V1.90169L26.578 0ZM32.3541 19.0476L26.5778 13.1398L20.8016 19.0476H17.0764L26.5778 9.33027L36.0793 19.0476H32.3541ZM26.5778 13.7113L33.2833 20.5714H29.561L26.5778 17.5208L23.5947 20.5714H19.8724L26.5778 13.7113ZM28.4436 20L26.578 18.0983L24.7153 20V22.0952L26.578 24L28.4406 22.0952L28.4436 20ZM19.2864 5.71681H22.9986L26.3101 9.10326L24.453 11.0024L19.2864 5.71681ZM20.2156 7.24062L24.1598 11.2746H20.4348L16.4904 7.24062H20.2156ZM32.7187 11.2746H28.9937L32.9408 7.23768H36.666L32.7187 11.2746ZM33.8671 5.71681L28.6931 11.01L26.8309 9.10567L30.1449 5.71681H33.8671ZM17.2727 8.59296L19.8809 11.2566L2.73622 11.2566L0.12854 8.59296H17.2727ZM4.59885 11.6406H23.8355L21.2278 14.3072H7.20653L4.59885 11.6406ZM9.06915 14.6882H20.8553L18.2476 17.3549H11.6768L9.06915 14.6882ZM41.4789 17.3549H34.8976L32.2899 14.6882H44.0866L41.4789 17.3549ZM45.9492 14.3072H31.9174L29.3097 11.6406H48.5569L45.9492 14.3072ZM50.4195 11.2566L33.2607 11.2566L35.8689 8.59296H53.0272L50.4195 11.2566Z" fill="white"/>
</svg>
